<?xml version="1.0" encoding="UTF-8"?>
<svg id="_Слой_1" data-name="Слой_1" xmlns="http://www.w3.org/2000/svg" xmlns:xlink="http://www.w3.org/1999/xlink" viewBox="0 0 287.1104736943 287.1104736943">
  <defs>
    <style>
      .cls-1, .cls-2, .cls-3, .cls-4 {
        fill: none;
      }

      .cls-2 {
        stroke-linecap: round;
        stroke-width: .25px;
      }

      .cls-2, .cls-3, .cls-5, .cls-4 {
        stroke-miterlimit: 10;
      }

      .cls-2, .cls-5, .cls-4, .cls-6 {
        stroke: #000;
      }

      .cls-7 {
        fill: url(#_Безымянный_градиент_2);
      }

      .cls-3 {
        stroke: #c8c8c8;
        stroke-width: 9px;
      }

      .cls-8 {
        fill: #513331;
      }

      .cls-5 {
        fill: #c69c6d;
      }

      .cls-9 {
        fill: #b7b7b7;
      }

      .cls-6 {
        fill: url(#_Безымянный_градиент_307);
        stroke-linejoin: round;
        stroke-width: 3px;
      }
    </style>
    <radialGradient id="_Безымянный_градиент_2" data-name="Безымянный градиент 2" cx="143.0938601429" cy="143.5568068046" fx="143.0938601429" fy="143.5568068046" r="139.0166015625" gradientUnits="userSpaceOnUse">
      <stop offset=".3935866233" stop-color="#d4003b"/>
      <stop offset=".4107989892" stop-color="#d4202d" stop-opacity=".9076800416"/>
      <stop offset=".4379213125" stop-color="#d6481c" stop-opacity=".7953258141"/>
      <stop offset=".4688488346" stop-color="#d6670f" stop-opacity=".7077369012"/>
      <stop offset=".5053140413" stop-color="#d77c06" stop-opacity=".646139605"/>
      <stop offset=".5526331338" stop-color="#d78901" stop-opacity=".6103682231"/>
      <stop offset=".6504226223" stop-color="#d88d00" stop-opacity=".6000000238"/>
      <stop offset=".699608566" stop-color="#d78e03" stop-opacity=".6072007626"/>
      <stop offset=".7442876571" stop-color="#d6910e" stop-opacity=".6292626461"/>
      <stop offset=".7872556766" stop-color="#d59621" stop-opacity=".6662910627"/>
      <stop offset=".8291542786" stop-color="#d39e3b" stop-opacity=".7183464888"/>
      <stop offset=".8702647631" stop-color="#d0a85c" stop-opacity=".7854497079"/>
      <stop offset=".9108071405" stop-color="#cdb485" stop-opacity=".8677339979"/>
      <stop offset=".9501630583" stop-color="#c9c2b5" stop-opacity=".9633571761"/>
      <stop offset=".9637347808" stop-color="#c8c8c8"/>
    </radialGradient>
    <radialGradient id="_Безымянный_градиент_307" data-name="Безымянный градиент 307" cx="143.1168359143" cy="143.7011625922" fx="143.1168359143" fy="143.7011625922" r="37.5462488004" gradientTransform="translate(49.8451248865 -36.5416164805) rotate(17.5103408629)" gradientUnits="userSpaceOnUse">
      <stop offset=".4922499686" stop-color="#7ffff9"/>
      <stop offset=".4970873309" stop-color="#7ffff9" stop-opacity=".9704907251"/>
      <stop offset=".519018089" stop-color="#7ffffa" stop-opacity=".8563337401"/>
      <stop offset=".5435159243" stop-color="#7ffffb" stop-opacity=".7619960572"/>
      <stop offset=".5711618916" stop-color="#7ffffc" stop-opacity=".6893469166"/>
      <stop offset=".6037559722" stop-color="#7ffffc" stop-opacity=".6382615858"/>
      <stop offset=".6460428966" stop-color="#7ffffc" stop-opacity=".6085999571"/>
      <stop offset=".7334496777" stop-color="#7ffffd" stop-opacity=".6000000238"/>
      <stop offset=".7898393384" stop-color="#79f9f7" stop-opacity=".6188916092"/>
      <stop offset=".8410456053" stop-color="#66eae8" stop-opacity=".6767468358"/>
      <stop offset=".8902547146" stop-color="#47d0ce" stop-opacity=".7737541236"/>
      <stop offset=".9379387315" stop-color="#1cacaa" stop-opacity=".9091120534"/>
      <stop offset=".9637347808" stop-color="#009492"/>
    </radialGradient>
  </defs>
  <g>
    <path class="cls-7" d="M143.0938601429,282.5734083671c-76.6538085938,0-139.0166015625-62.3623046875-139.0166015625-139.0166015625C4.0772585804,66.9029982108,66.4400515492,4.5402052421,143.0938601429,4.5402052421c76.654296875,0,139.0166015625,62.3627929688,139.0166015625,139.0166015625,0,76.654296875-62.3623046875,139.0166015625-139.0166015625,139.0166015625ZM143.0938601429,92.9982130546c-27.8779296875,0-50.55859375,22.6806640625-50.55859375,50.55859375,0,27.8837890625,22.6806640625,50.568359375,50.55859375,50.568359375,27.8828125,0,50.5673828125-22.6845703125,50.5673828125-50.568359375,0-27.8779296875-22.6845703125-50.55859375-50.5673828125-50.55859375Z"/>
    <path d="M143.0937991078,5.0402290839c36.9979248047,0,71.7821960449,14.408577919,97.9451141357,40.5715398788,26.1629486084,26.1629180908,40.5715484619,60.9471893311,40.5715484619,97.9451141357s-14.4085998535,71.7821502686-40.5715484619,97.9451141357c-26.1629180908,26.1629943848-60.9471893311,40.5715637207-97.9451141357,40.5715637207s-71.7821960449-14.4085693359-97.9451141357-40.5715637207c-26.1629619598-26.1629638672-40.5715398788-60.9471893311-40.5715398788-97.9451141357s14.408577919-71.7821960449,40.5715398788-97.9451141357C71.3116030629,19.4488070029,106.0958743031,5.0402290839,143.0937991078,5.0402290839M143.0937991078,194.6247236747c28.1589202881,0,51.0678863525-22.9089202881,51.0678863525-51.0678405762,0-28.1538085938-22.9089660645-51.0585784912-51.0678863525-51.0585784912-28.1538085938,0-51.0585784912,22.9047698975-51.0585784912,51.0585784912,0,28.1589202881,22.9047698975,51.0678405762,51.0585784912,51.0678405762M143.0937991078,4.0402290839C66.0433764393,4.0402290839,3.5771450932,66.5064604301,3.5771450932,143.5568830985c0,77.0503845215,62.4662313461,139.5166778564,139.5166540146,139.5166778564,77.0504302979,0,139.5166625977-62.466293335,139.5166625977-139.5166778564,0-77.0504226685-62.4662322998-139.5166540146-139.5166625977-139.5166540146h0ZM143.0937991078,193.6247236747c-27.6521911621,0-50.0585784912-22.4156494141-50.0585784912-50.0678405762,0-27.6522293091,22.4063873291-50.0585784912,50.0585784912-50.0585784912s50.0678863525,22.4063491821,50.0678863525,50.0585784912c0,27.6521911621-22.4156951904,50.0678405762-50.0678863525,50.0678405762h0Z"/>
  </g>
  <g>
    <path class="cls-8" d="M143.0938601429,192.6251661796c-27.05078125,0-49.05859375-22.01171875-49.05859375-49.068359375,0-27.05078125,22.0078125-49.05859375,49.05859375-49.05859375,27.0556640625,0,49.0673828125,22.0078125,49.0673828125,49.05859375,0,27.056640625-22.01171875,49.068359375-49.0673828125,49.068359375ZM143.0938601429,112.3839552421c-17.1889648438,0-31.1728515625,13.9838867188-31.1728515625,31.1728515625,0,17.1884765625,13.9838867188,31.1728515625,31.1728515625,31.1728515625,17.1884765625,0,31.1728515625-13.984375,31.1728515625-31.1728515625,0-17.1889648438-13.984375-31.1728515625-31.1728515625-31.1728515625Z"/>
    <path d="M143.0937991078,95.4982893485c26.5047302246,0,48.0679016113,21.5589981079,48.0679016113,48.05859375,0,26.504699707-21.5631713867,48.0678405762-48.0679016113,48.0678405762-26.4996032715,0-48.0585861206-21.5631408691-48.0585861206-48.0678405762,0-26.4995956421,21.5589828491-48.05859375,48.0585861206-48.05859375M143.0937991078,175.7296888847c17.7401428223,0,32.1728057861-14.4326477051,32.1728057861-32.1728057861,0-17.7401428223-14.4326629639-32.1728134155-32.1728057861-32.1728134155s-32.1727981567,14.4326705933-32.1727981567,32.1728134155c0,17.7401580811,14.4326553345,32.1728057861,32.1727981567,32.1728057861M143.0937991078,93.4982893485c-27.6521835327,0-50.0585861206,22.4063644409-50.0585861206,50.05859375,0,27.6521911621,22.4064025879,50.0678405762,50.0585861206,50.0678405762,27.6522064209,0,50.0679016113-22.4156494141,50.0679016113-50.0678405762,0-27.6522293091-22.4156951904-50.05859375-50.0679016113-50.05859375h0ZM143.0937991078,173.7296888847c-16.6675567627,0-30.1727981567-13.5052337646-30.1727981567-30.1728057861,0-16.6676330566,13.505241394-30.1728134155,30.1727981567-30.1728134155s30.1728057861,13.5051803589,30.1728057861,30.1728134155c0,16.6675720215-13.5052490234,30.1728057861-30.1728057861,30.1728057861h0Z"/>
  </g>
  <circle class="cls-3" cx="143.5552368472" cy="143.5552368472" r="139.0552368472"/>
  <path class="cls-1" d="M57.6361530079,156.7856567837c.0518862798.0168559649.1037725596.0337193782.1556588394.0505753431-.025235532-.0361997301-.0504785125-.0723920117-.0757140445-.1085917418"/>
  <path class="cls-1" d="M229.4743206864,130.3297662592c-.0518862798-.0168559649-.1037725596-.0337193782-.1556588394-.0505753431.025235532.0361997301.0504785125.0723920117.0757140445.1085917418"/>
  <circle class="cls-4" cx="143.0938003752" cy="143.5568724377" r="19.1416597462" transform="translate(-21.53048749 261.8076871273) rotate(-80.7825189409)"/>
  <g>
    <path class="cls-9" d="M143.0938601429,162.1984083671c-10.2788085938,0-18.6416015625-8.3623046875-18.6416015625-18.6416015625,0-10.2788085938,8.3627929688-18.6416015625,18.6416015625-18.6416015625,10.279296875,0,18.6416015625,8.3627929688,18.6416015625,18.6416015625,0,10.279296875-8.3623046875,18.6416015625-18.6416015625,18.6416015625Z"/>
    <path d="M143.0937991078,125.4151899833c10.0033721924,0,18.141708374,8.1383209229,18.141708374,18.1416931152,0,10.0033416748-8.1383361816,18.1416473389-18.141708374,18.1416473389s-18.141708374-8.1383056641-18.141708374-18.1416473389c0-10.0033721924,8.1383361816-18.1416931152,18.141708374-18.1416931152M143.0937991078,124.4151899833c-10.5753631592,0-19.141708374,8.5663299561-19.141708374,19.1416931152s8.5663452148,19.1416473389,19.141708374,19.1416473389,19.141708374-8.5662841797,19.141708374-19.1416473389-8.5663452148-19.1416931152-19.141708374-19.1416931152h0Z"/>
  </g>
  <g>
    <circle class="cls-1" cx="143.0938003752" cy="143.5585364129" r="120.8906607361"/>
    <path class="cls-5" d="M46.4092898304,207.6573927421c.2548828125,2.2548828125,1.2158203125,5.08984375,3.048828125,7.4306640625,2.71875,3.47265625,6.1411132812,4.0654296875,8.7939453125,1.98828125,2.4584960938-1.923828125,2.7631835938-4.4287109375,1.3486328125-9.0478515625-1.8383789062-5.4833984375-1.6918945312-9.8779296875,2.0146484375-12.7802734375,4.0971679688-3.20703125,9.7978515625-2.1953125,13.7998046875,2.916015625,2.1079101562,2.69140625,3.0107421875,5.130859375,3.2641601562,6.8212890625l-3.5034179688,1.232421875c-.2041015625-1.224609375-.7983398438-3.591796875-2.6616210938-5.9716796875-2.810546875-3.58984375-6.025390625-3.275390625-7.8203125-1.8701171875-2.4580078125,1.9248046875-2.4150390625,4.4716796875-.978515625,9.2001953125,1.765625,5.7919921875,1.3916015625,9.734375-2.4711914062,12.7587890625-4.0576171875,3.1767578125-9.9213867188,2.921875-14.7788085938-3.28125-1.9853515625-2.5361328125-3.4130859375-5.88671875-3.576171875-8.0244140625l3.5200195312-1.3720703125Z"/>
    <path class="cls-5" d="M85.4703249867,209.8878614921l-8.1669921875,11.3388671875,13.107421875,9.44140625,8.1669921875-11.3388671875,3.5380859375,2.548828125-19.5200195312,27.099609375-3.5380859375-2.548828125,9.1518554688-12.705078125-13.107421875-9.44140625-9.1518554688,12.705078125-3.498046875-2.51953125,19.5200195312-27.099609375,3.498046875,2.51953125Z"/>
    <path class="cls-5" d="M109.5440554554,224.7921583671l-5.8510742188,18.8857421875c-2.2138671875,7.146484375.0190429688,11.158203125,4.2788085938,12.478515625,4.7333984375,1.4658203125,8.73046875-.71875,10.9150390625-7.771484375l5.8510742188-18.8857421875,4.1650390625,1.2900390625-5.7626953125,18.6015625c-3.03515625,9.7978515625-9.4409179688,12.22265625-16.3515625,10.08203125-6.5322265625-2.0234375-10.2963867188-7.2880859375-7.2314453125-17.1806640625l5.8212890625-18.791015625,4.1655273438,1.291015625Z"/>
    <path class="cls-5" d="M133.1382937367,230.8556349296l4.3090820312.0966796875-.6694335938,29.767578125,14.2641601562.3212890625-.0810546875,3.615234375-18.5737304688-.4169921875.7509765625-33.3837890625Z"/>
    <path class="cls-5" d="M183.6944460804,256.6554396171c-1.7197265625,1.123046875-5.1669921875,3.1162109375-9.552734375,4.162109375-4.9169921875,1.171875-9.2646484375.8837890625-13.169921875-1.39453125-3.439453125-2.033203125-6.208984375-5.9580078125-7.4150390625-11.0185546875-2.26171875-9.7001953125,2.701171875-18.3720703125,13.595703125-20.96875,3.759765625-.8955078125,6.8955078125-.77734375,8.4541015625-.435546875l-.1962890625,3.6630859375c-1.919921875-.357421875-4.23828125-.466796875-7.515625.314453125-7.9052734375,1.884765625-11.890625,8.0302734375-9.94921875,16.1767578125,1.96484375,8.2421875,8.08984375,11.927734375,15.658203125,10.1240234375,2.7470703125-.6552734375,4.53515625-1.4892578125,5.384765625-2.201171875l-2.3095703125-9.6884765625-6.6044921875,1.57421875-.8037109375-3.3740234375,10.701171875-2.55078125,3.72265625,15.6171875Z"/>
    <path class="cls-5" d="M195.4200320179,240.9640333671l2.5166015625,10.7724609375-3.8056640625,2.3251953125-7.728515625-34.4140625,4.439453125-2.712890625,27.13671875,22.556640625-3.9326171875,2.40234375-8.5205078125-7.103515625-10.10546875,6.173828125ZM203.0079226429,232.3800489921l-7.802734375-6.498046875c-1.7705078125-1.47265625-3.2265625-2.9052734375-4.6572265625-4.2958984375l-.0849609375.05078125c.611328125,1.9501953125,1.205078125,3.9677734375,1.71484375,6.037109375l2.24609375,9.9501953125,8.583984375-5.244140625Z"/>
    <path class="cls-5" d="M226.7276492054,231.7404005546l-25.3505859375-21.7412109375,3.064453125-3.5732421875,19.79296875,2.875c4.5849609375.66796875,8.513671875,1.4912109375,12.140625,2.513671875l.02734375-.1083984375c-3.6435546875-2.6015625-6.7919921875-5.171875-10.7421875-8.55859375l-10.6064453125-9.0966796875,2.6455078125-3.083984375,25.3505859375,21.7412109375-2.8388671875,3.3095703125-19.7666015625-2.982421875c-4.3369140625-.6513671875-8.6845703125-1.4423828125-12.52734375-2.5185546875l-.05859375.14453125c3.3583984375,2.5546875,6.4697265625,5.091796875,10.681640625,8.705078125l10.8330078125,9.2900390625-2.6455078125,3.083984375Z"/>
  </g>
  <g>
    <circle class="cls-1" cx="143.0938003752" cy="143.55688663" r="120.8906607361"/>
    <path class="cls-5" d="M239.4151492054,78.9137403983c-.267578125-2.2534179688-1.2431640625-5.0830078125-3.0888671875-7.4140625-2.73828125-3.4575195312-6.1640625-4.0317382812-8.8056640625-1.9399414062-2.447265625,1.9379882812-2.73828125,4.4438476562-1.298828125,9.0556640625,1.869140625,5.4731445312,1.74609375,9.8681640625-1.9443359375,12.791015625-4.0791015625,3.2294921875-9.7861328125,2.2495117188-13.8154296875-2.83984375-2.123046875-2.6806640625-3.0390625-5.115234375-3.3017578125-6.8037109375l3.4970703125-1.2514648438c.2099609375,1.2236328125.8173828125,3.5869140625,2.6943359375,5.95703125,2.830078125,3.5737304688,6.04296875,3.2416992188,7.830078125,1.8266601562,2.447265625-1.9379882812,2.390625-4.484375.9287109375-9.2045898438-1.7978515625-5.7827148438-1.4453125-9.7275390625,2.400390625-12.7729492188,4.0400390625-3.19921875,9.9052734375-2.9765625,14.796875,3.2006835938,1.9990234375,2.5249023438,3.4453125,5.8676757812,3.6201171875,8.0043945312l-3.5126953125,1.3911132812Z"/>
    <path class="cls-5" d="M223.7256960804,56.9337599296c-1.220703125,1.3681640625-3.0029296875,1.5043945312-4.296875.3500976562-1.2939453125-1.1547851562-1.3232421875-2.9077148438-.103515625-4.2758789062,1.1884765625-1.3310546875,2.9287109375-1.5703125,4.296875-.349609375,1.2939453125,1.154296875,1.291015625,2.9443359375.103515625,4.275390625Z"/>
    <path class="cls-5" d="M196.5088992054,73.5885450858l-3.6904296875-2.2290039062,8.326171875-13.7861328125-.126953125-.0766601562c-1.4296875.6416015625-2.80859375,1.1982421875-4.0927734375,1.6962890625l-15.220703125,5.4545898438-4.5810546875-2.7670898438,17.677734375-5.880859375-1.216796875-23.1967773438,4.3701171875,2.6391601562.9365234375,19.7280273438,4.6103515625-1.4995117188,6.5849609375-10.9013671875,3.6904296875,2.228515625-17.267578125,28.5908203125Z"/>
    <path class="cls-5" d="M185.8331179554,33.1676466483c-.625,1.7236328125-2.228515625,2.5126953125-3.859375,1.9213867188-1.6298828125-.5913085938-2.3095703125-2.2075195312-1.6845703125-3.9311523438.6083984375-1.6772460938,2.1357421875-2.5463867188,3.859375-1.9213867188,1.630859375.5908203125,2.29296875,2.2543945312,1.6845703125,3.9311523438Z"/>
    <path class="cls-5" d="M152.5997195179,38.3741896171l12.7880859375,2.2309570312,2.0693359375-11.8618164062-14.2529296875-2.4858398438.62109375-3.5634765625,18.5,3.2270507812-5.73828125,32.8999023438-17.7685546875-3.099609375.6220703125-3.5629882812,13.521484375,2.3583984375,1.8134765625-10.3969726562-12.7890625-2.2309570312.61328125-3.5146484375Z"/>
    <path class="cls-5" d="M145.7989382679,25.2838575858c-.0302734375,1.8334960938-1.2900390625,3.1010742188-3.0239257812,3.0727539062s-2.90234375-1.3359375-2.8720703125-3.1689453125c.0288085938-1.7836914062,1.1904296875-3.1025390625,3.0234375-3.0727539062,1.7338867188.0283203125,2.9018554688,1.3852539062,2.8725585938,3.1689453125Z"/>
    <path class="cls-5" d="M127.0074343617,34.1671583671l1.3227539062-10.982421875,4.37109375-.8813476562-4.51953125,34.978515625-5.099609375,1.0283203125-17.7734375-30.4819335938,4.5166015625-.9111328125,5.57421875,9.5913085938,11.6079101562-2.3413085938ZM116.9395632679,39.6349318046l5.1059570312,8.775390625c1.1596679688,1.990234375,2.037109375,3.8349609375,2.9047851562,5.6313476562l.0971679688-.01953125c.09375-2.041015625.2265625-4.1401367188.4565429688-6.2587890625l1.294921875-10.1171875-9.859375,1.9887695312Z"/>
    <path class="cls-5" d="M98.9522585804,33.7213575858c.720703125,1.6860351562.0883789062,3.3579101562-1.5063476562,4.0395507812-1.5947265625.6821289062-3.1948242188-.0346679688-3.9155273438-1.720703125-.7016601562-1.6401367188-.1796875-3.318359375,1.505859375-4.0395507812,1.5947265625-.6821289062,3.2143554688.0805664062,3.916015625,1.720703125Z"/>
    <path class="cls-5" d="M95.1036257679,65.9962599296l8.4985351562-5.5615234375,2.0078125,3.0678710938-20.6875,13.5380859375-2.0078125-3.0678710938,8.5405273438-5.5888671875-16.2783203125-24.875,3.6484375-2.3872070312,16.2783203125,24.8745117188Z"/>
    <path class="cls-5" d="M66.6768679554,53.1925489921c1.2143554688,1.3735351562,1.1396484375,3.1591796875-.1596679688,4.3081054688s-3.0439453125.9711914062-4.2583007812-.40234375c-1.181640625-1.3364257812-1.2138671875-3.09375.1596679688-4.3081054688,1.2993164062-1.1489257812,3.0766601562-.9340820312,4.2583007812.40234375Z"/>
    <path class="cls-5" d="M55.3262820179,84.8087599296l8.107421875-10.138671875-9.4033203125-7.51953125-9.0356445312,11.2993164062-2.8251953125-2.2587890625,11.7280273438-14.666015625,26.0815429688,20.8569335938-11.2641601562,14.0854492188-2.8247070312-2.2592773438,8.5717773438-10.71875-8.2421875-6.5913085938-8.107421875,10.138671875-2.7861328125-2.2280273438Z"/>
  </g>
  <line class="cls-2" x1="138.4467995278" y1="134.8258686771" x2="148.6636741665" y2="152.2971580081"/>
  <line class="cls-2" x1="152.2908823474" y1="138.4530774506" x2="134.819591347" y2="148.6699492346"/>
  <path class="cls-6" d="M172.6909137028,116.4489810782l-38.2806052196-12.077424703-29.5956721864,27.1153018912,8.6778399829,39.185858855,38.2806052196,12.077424703,29.5985544687-27.1097626376-8.6807222652-39.1913981086ZM137.1839422759,162.3007369842c-10.3483987943-3.2648910987-16.0929200548-14.3049193902-12.8280370566-24.6532925091,3.2635626131-10.3441880263,14.3035652292-16.0887173873,24.6519640235-12.8238262886,10.3441623509,3.2635545126,16.0887173873,14.3035652292,12.8251547742,24.6477532555-3.2648829982,10.3483731189-14.3049193902,16.0929200548-24.6490817411,12.8293655422Z"/>
</svg>